<svg width="900" height="750" viewBox="0 0 900 750" xmlns="http://www.w3.org/2000/svg">
  <!-- Title -->
  <text x="450" y="25" text-anchor="middle" font-family="Arial" font-size="18" font-weight="bold" fill="#333">AdvanceWeekly System Architecture</text>
  
  <!-- User Interface Layer -->
  <rect x="50" y="50" width="800" height="120" fill="#e3f2fd" stroke="#1976d2" stroke-width="2" rx="8"/>
  <text x="450" y="75" text-anchor="middle" font-family="Arial" font-size="16" font-weight="bold" fill="#1976d2">User Interface Layer</text>
  
  <!-- UI Components -->
  <rect x="80" y="90" width="120" height="60" fill="#bbdefb" stroke="#1565c0" stroke-width="1" rx="5"/>
  <text x="140" y="115" text-anchor="middle" font-family="Arial" font-size="12" font-weight="bold" fill="#1565c0">Weekly Reflections</text>
  <text x="140" y="135" text-anchor="middle" font-family="Arial" font-size="10" fill="#1565c0">CRUD Interface</text>
  
  <rect x="220" y="90" width="120" height="60" fill="#bbdefb" stroke="#1565c0" stroke-width="1" rx="5"/>
  <text x="280" y="110" text-anchor="middle" font-family="Arial" font-size="12" font-weight="bold" fill="#1565c0">Automation</text>
  <text x="280" y="125" text-anchor="middle" font-family="Arial" font-size="12" font-weight="bold" fill="#1565c0">Preferences</text>
  <text x="280" y="140" text-anchor="middle" font-family="Arial" font-size="10" fill="#1565c0">Settings UI</text>
  
  <rect x="360" y="90" width="120" height="60" fill="#bbdefb" stroke="#1565c0" stroke-width="1" rx="5"/>
  <text x="420" y="115" text-anchor="middle" font-family="Arial" font-size="12" font-weight="bold" fill="#1565c0">Performance</text>
  <text x="420" y="135" text-anchor="middle" font-family="Arial" font-size="10" fill="#1565c0">AI Assessments</text>
  
  <rect x="500" y="90" width="120" height="60" fill="#bbdefb" stroke="#1565c0" stroke-width="1" rx="5"/>
  <text x="560" y="115" text-anchor="middle" font-family="Arial" font-size="12" font-weight="bold" fill="#1565c0">Settings</text>
  <text x="560" y="135" text-anchor="middle" font-family="Arial" font-size="10" fill="#1565c0">User Profile</text>
  
  <rect x="640" y="90" width="120" height="60" fill="#bbdefb" stroke="#1565c0" stroke-width="1" rx="5"/>
  <text x="700" y="115" text-anchor="middle" font-family="Arial" font-size="12" font-weight="bold" fill="#1565c0">Integration Mgmt</text>
  <text x="700" y="135" text-anchor="middle" font-family="Arial" font-size="10" fill="#1565c0">OAuth Flows</text>

  <rect x="780" y="90" width="100" height="60" fill="#bbdefb" stroke="#1565c0" stroke-width="1" rx="5"/>
  <text x="830" y="110" text-anchor="middle" font-family="Arial" font-size="12" font-weight="bold" fill="#1565c0">Manual</text>
  <text x="830" y="125" text-anchor="middle" font-family="Arial" font-size="12" font-weight="bold" fill="#1565c0">Generator</text>
  <text x="830" y="140" text-anchor="middle" font-family="Arial" font-size="10" fill="#1565c0">Generate Now</text>
  
  <!-- Reflection Automation Layer -->
  <rect x="50" y="200" width="800" height="80" fill="#fff8e1" stroke="#ff9800" stroke-width="2" rx="8"/>
  <text x="450" y="225" text-anchor="middle" font-family="Arial" font-size="16" font-weight="bold" fill="#ff9800">Reflection Automation Layer</text>
  
  <rect x="100" y="240" width="110" height="30" fill="#ffcc02" stroke="#ff9800" stroke-width="1" rx="5"/>
  <text x="155" y="260" text-anchor="middle" font-family="Arial" font-size="10" fill="#e65100">Hourly Scheduler</text>
  
  <rect x="230" y="240" width="110" height="30" fill="#ffcc02" stroke="#ff9800" stroke-width="1" rx="5"/>
  <text x="285" y="260" text-anchor="middle" font-family="Arial" font-size="10" fill="#e65100">Preference Matcher</text>
  
  <rect x="360" y="240" width="110" height="30" fill="#ffcc02" stroke="#ff9800" stroke-width="1" rx="5"/>
  <text x="415" y="260" text-anchor="middle" font-family="Arial" font-size="10" fill="#e65100">Manual Trigger</text>
  
  <rect x="490" y="240" width="110" height="30" fill="#ffcc02" stroke="#ff9800" stroke-width="1" rx="5"/>
  <text x="545" y="260" text-anchor="middle" font-family="Arial" font-size="10" fill="#e65100">Job Orchestrator</text>
  
  <rect x="620" y="240" width="110" height="30" fill="#ffcc02" stroke="#ff9800" stroke-width="1" rx="5"/>
  <text x="675" y="260" text-anchor="middle" font-family="Arial" font-size="10" fill="#e65100">Progress Tracker</text>
  
  <rect x="750" y="240" width="110" height="30" fill="#ffcc02" stroke="#ff9800" stroke-width="1" rx="5"/>
  <text x="805" y="260" text-anchor="middle" font-family="Arial" font-size="10" fill="#e65100">Conflict Handler</text>
  
  <!-- Authentication Layer -->
  <rect x="50" y="310" width="800" height="80" fill="#f3e5f5" stroke="#7b1fa2" stroke-width="2" rx="8"/>
  <text x="450" y="335" text-anchor="middle" font-family="Arial" font-size="16" font-weight="bold" fill="#7b1fa2">Authentication Layer (NextAuth)</text>
  
  <rect x="200" y="350" width="120" height="30" fill="#e1bee7" stroke="#7b1fa2" stroke-width="1" rx="5"/>
  <text x="260" y="370" text-anchor="middle" font-family="Arial" font-size="10" fill="#7b1fa2">Dev: Mock Auth</text>
  
  <rect x="340" y="350" width="120" height="30" fill="#e1bee7" stroke="#7b1fa2" stroke-width="1" rx="5"/>
  <text x="400" y="370" text-anchor="middle" font-family="Arial" font-size="10" fill="#7b1fa2">Prod: Google OAuth</text>
  
  <rect x="480" y="350" width="120" height="30" fill="#e1bee7" stroke="#7b1fa2" stroke-width="1" rx="5"/>
  <text x="540" y="370" text-anchor="middle" font-family="Arial" font-size="10" fill="#7b1fa2">Session Management</text>
  
  <rect x="620" y="350" width="120" height="30" fill="#e1bee7" stroke="#7b1fa2" stroke-width="1" rx="5"/>
  <text x="680" y="370" text-anchor="middle" font-family="Arial" font-size="10" fill="#7b1fa2">Integration OAuth</text>
  
  <!-- API Layer -->
  <rect x="50" y="420" width="800" height="80" fill="#e8f5e8" stroke="#4caf50" stroke-width="2" rx="8"/>
  <text x="450" y="445" text-anchor="middle" font-family="Arial" font-size="16" font-weight="bold" fill="#4caf50">API Layer (/app/api/*)</text>
  
  <rect x="80" y="460" width="90" height="30" fill="#c8e6c9" stroke="#4caf50" stroke-width="1" rx="5"/>
  <text x="125" y="480" text-anchor="middle" font-family="Arial" font-size="10" fill="#388e3c">/reflections</text>
  
  <rect x="180" y="460" width="90" height="30" fill="#c8e6c9" stroke="#4caf50" stroke-width="1" rx="5"/>
  <text x="225" y="480" text-anchor="middle" font-family="Arial" font-size="10" fill="#388e3c">/preferences</text>
  
  <rect x="280" y="460" width="90" height="30" fill="#c8e6c9" stroke="#4caf50" stroke-width="1" rx="5"/>
  <text x="325" y="480" text-anchor="middle" font-family="Arial" font-size="10" fill="#388e3c">/jobs</text>
  
  <rect x="380" y="460" width="90" height="30" fill="#c8e6c9" stroke="#4caf50" stroke-width="1" rx="5"/>
  <text x="425" y="480" text-anchor="middle" font-family="Arial" font-size="10" fill="#388e3c">/assessments</text>
  
  <rect x="480" y="460" width="90" height="30" fill="#c8e6c9" stroke="#4caf50" stroke-width="1" rx="5"/>
  <text x="525" y="480" text-anchor="middle" font-family="Arial" font-size="10" fill="#388e3c">/integrations</text>
  
  <rect x="580" y="460" width="90" height="30" fill="#c8e6c9" stroke="#4caf50" stroke-width="1" rx="5"/>
  <text x="625" y="480" text-anchor="middle" font-family="Arial" font-size="10" fill="#388e3c">/auth</text>
  
  <rect x="680" y="460" width="90" height="30" fill="#c8e6c9" stroke="#4caf50" stroke-width="1" rx="5"/>
  <text x="725" y="480" text-anchor="middle" font-family="Arial" font-size="10" fill="#388e3c">/data-collection</text>
  
  <rect x="780" y="460" width="90" height="30" fill="#c8e6c9" stroke="#4caf50" stroke-width="1" rx="5"/>
  <text x="825" y="480" text-anchor="middle" font-family="Arial" font-size="10" fill="#388e3c">Scheduler API</text>
  
  <!-- Data Storage Layer -->
  <rect x="50" y="530" width="300" height="120" fill="#fff3e0" stroke="#f57c00" stroke-width="2" rx="8"/>
  <text x="200" y="555" text-anchor="middle" font-family="Arial" font-size="16" font-weight="bold" fill="#f57c00">Data Storage</text>
  
  <rect x="70" y="570" width="120" height="60" fill="#ffcc02" stroke="#f57c00" stroke-width="1" rx="5"/>
  <text x="130" y="595" text-anchor="middle" font-family="Arial" font-size="12" font-weight="bold" fill="#e65100">PostgreSQL</text>
  <text x="130" y="610" text-anchor="middle" font-family="Arial" font-size="10" fill="#e65100">(Cloud SQL)</text>
  <text x="130" y="625" text-anchor="middle" font-family="Arial" font-size="10" fill="#e65100">Production</text>
  
  <rect x="210" y="570" width="120" height="60" fill="#ffcc02" stroke="#f57c00" stroke-width="1" rx="5"/>
  <text x="270" y="595" text-anchor="middle" font-family="Arial" font-size="12" font-weight="bold" fill="#e65100">SQLite</text>
  <text x="270" y="610" text-anchor="middle" font-family="Arial" font-size="10" fill="#e65100">(dev.db)</text>
  <text x="270" y="625" text-anchor="middle" font-family="Arial" font-size="10" fill="#e65100">Development</text>
  
  <!-- Integration Services -->
  <rect x="380" y="530" width="300" height="120" fill="#e1f5fe" stroke="#2196f3" stroke-width="2" rx="8"/>
  <text x="530" y="555" text-anchor="middle" font-family="Arial" font-size="16" font-weight="bold" fill="#2196f3">Third-Party Integrations</text>
  
  <rect x="400" y="570" width="80" height="60" fill="#81d4fa" stroke="#2196f3" stroke-width="1" rx="5"/>
  <text x="440" y="595" text-anchor="middle" font-family="Arial" font-size="11" font-weight="bold" fill="#0d47a1">Google</text>
  <text x="440" y="610" text-anchor="middle" font-family="Arial" font-size="11" font-weight="bold" fill="#0d47a1">Calendar</text>
  <text x="440" y="625" text-anchor="middle" font-family="Arial" font-size="9" fill="#0d47a1">Meetings</text>
  
  <rect x="500" y="570" width="80" height="60" fill="#81d4fa" stroke="#2196f3" stroke-width="1" rx="5"/>
  <text x="540" y="595" text-anchor="middle" font-family="Arial" font-size="11" font-weight="bold" fill="#0d47a1">Todoist</text>
  <text x="540" y="610" text-anchor="middle" font-family="Arial" font-size="9" fill="#0d47a1">Tasks &amp;</text>
  <text x="540" y="625" text-anchor="middle" font-family="Arial" font-size="9" fill="#0d47a1">Projects</text>
  
  <rect x="600" y="570" width="80" height="60" fill="#81d4fa" stroke="#2196f3" stroke-width="1" rx="5"/>
  <text x="640" y="595" text-anchor="middle" font-family="Arial" font-size="11" font-weight="bold" fill="#0d47a1">GitHub</text>
  <text x="640" y="610" text-anchor="middle" font-family="Arial" font-size="9" fill="#0d47a1">Commits &amp;</text>
  <text x="640" y="625" text-anchor="middle" font-family="Arial" font-size="9" fill="#0d47a1">PRs</text>
  
  <!-- AI Processing -->
  <rect x="710" y="530" width="140" height="120" fill="#fce4ec" stroke="#e91e63" stroke-width="2" rx="8"/>
  <text x="780" y="555" text-anchor="middle" font-family="Arial" font-size="16" font-weight="bold" fill="#e91e63">AI Processing</text>
  
  <rect x="720" y="570" width="60" height="60" fill="#f8bbd9" stroke="#e91e63" stroke-width="1" rx="5"/>
  <text x="750" y="595" text-anchor="middle" font-family="Arial" font-size="10" font-weight="bold" fill="#880e4f">Gemini API</text>
  <text x="750" y="610" text-anchor="middle" font-family="Arial" font-size="8" fill="#880e4f">Production</text>
  <text x="750" y="625" text-anchor="middle" font-family="Arial" font-size="8" fill="#880e4f">Cloud</text>
  
  <rect x="790" y="570" width="60" height="60" fill="#f8bbd9" stroke="#e91e63" stroke-width="1" rx="5"/>
  <text x="820" y="595" text-anchor="middle" font-family="Arial" font-size="10" font-weight="bold" fill="#880e4f">Mock LLM</text>
  <text x="820" y="610" text-anchor="middle" font-family="Arial" font-size="8" fill="#880e4f">Development</text>
  <text x="820" y="625" text-anchor="middle" font-family="Arial" font-size="8" fill="#880e4f">Local</text>
  
  <!-- Scheduled Processing -->
  <rect x="50" y="680" width="800" height="60" fill="#f3e5f5" stroke="#9c27b0" stroke-width="2" rx="8"/>
  <text x="450" y="705" text-anchor="middle" font-family="Arial" font-size="16" font-weight="bold" fill="#9c27b0">Background Job Processing</text>
  
  <rect x="100" y="720" width="100" height="25" fill="#e1bee7" stroke="#9c27b0" stroke-width="1" rx="5"/>
  <text x="150" y="737" text-anchor="middle" font-family="Arial" font-size="9" fill="#4a148c">Job Processor</text>
  
  <rect x="220" y="720" width="100" height="25" fill="#e1bee7" stroke="#9c27b0" stroke-width="1" rx="5"/>
  <text x="270" y="737" text-anchor="middle" font-family="Arial" font-size="9" fill="#4a148c">Async Operations</text>
  
  <rect x="340" y="720" width="100" height="25" fill="#e1bee7" stroke="#9c27b0" stroke-width="1" rx="5"/>
  <text x="390" y="737" text-anchor="middle" font-family="Arial" font-size="9" fill="#4a148c">Progress Tracking</text>
  
  <rect x="460" y="720" width="100" height="25" fill="#e1bee7" stroke="#9c27b0" stroke-width="1" rx="5"/>
  <text x="510" y="737" text-anchor="middle" font-family="Arial" font-size="9" fill="#4a148c">Error Recovery</text>
  
  <rect x="580" y="720" width="100" height="25" fill="#e1bee7" stroke="#9c27b0" stroke-width="1" rx="5"/>
  <text x="630" y="737" text-anchor="middle" font-family="Arial" font-size="9" fill="#4a148c">Cron Scheduler</text>
  
  <rect x="700" y="720" width="100" height="25" fill="#e1bee7" stroke="#9c27b0" stroke-width="1" rx="5"/>
  <text x="750" y="737" text-anchor="middle" font-family="Arial" font-size="9" fill="#4a148c">Conflict Detection</text>
  
  <!-- Environment Labels -->
  <rect x="20" y="50" width="20" height="20" fill="#4caf50" rx="3"/>
  <text x="45" y="65" font-family="Arial" font-size="12" fill="#4caf50">Development</text>
  
  <rect x="20" y="75" width="20" height="20" fill="#2196f3" rx="3"/>
  <text x="45" y="90" font-family="Arial" font-size="12" fill="#2196f3">Production</text>
  
  <!-- Arrows showing data flow -->
  <line x1="450" y1="170" x2="450" y2="200" stroke="#666" stroke-width="2" marker-end="url(#arrowhead)"/>
  <line x1="450" y1="280" x2="450" y2="310" stroke="#666" stroke-width="2" marker-end="url(#arrowhead)"/>
  <line x1="450" y1="390" x2="450" y2="420" stroke="#666" stroke-width="2" marker-end="url(#arrowhead)"/>
  <line x1="450" y1="500" x2="450" y2="530" stroke="#666" stroke-width="2" marker-end="url(#arrowhead)"/>
  <line x1="450" y1="650" x2="450" y2="680" stroke="#666" stroke-width="2" marker-end="url(#arrowhead)"/>
  
  <!-- Automation flow arrows -->
  <line x1="280" y1="170" x2="285" y2="200" stroke="#ff9800" stroke-width="2" marker-end="url(#arrowhead)" stroke-dasharray="5,5"/>
  <line x1="830" y1="170" x2="415" y2="200" stroke="#ff9800" stroke-width="2" marker-end="url(#arrowhead)" stroke-dasharray="5,5"/>
  
  <!-- Integration flow arrows -->
  <line x1="530" y1="650" x2="780" y2="650" stroke="#2196f3" stroke-width="2" marker-end="url(#arrowhead)" stroke-dasharray="5,5"/>
  <line x1="780" y1="530" x2="630" y2="500" stroke="#e91e63" stroke-width="2" marker-end="url(#arrowhead)" stroke-dasharray="5,5"/>
  
  <!-- Arrow marker definition -->
  <defs>
    <marker id="arrowhead" markerWidth="10" markerHeight="7" refX="9" refY="3.5" orient="auto">
      <polygon points="0 0, 10 3.5, 0 7" fill="#666"/>
    </marker>
  </defs>
</svg>