<svg width="1000" height="700" viewBox="0 0 1000 700" xmlns="http://www.w3.org/2000/svg">
  <!-- Title -->
  <text x="500" y="30" text-anchor="middle" font-family="Arial, sans-serif" font-size="20" font-weight="bold" fill="#2c3e50">AdvanceWeekly System Architecture</text>
  
  <!-- User Experience Layer -->
  <rect x="50" y="60" width="900" height="100" fill="#ecf0f1" stroke="#34495e" stroke-width="2" rx="10"/>
  <text x="500" y="85" text-anchor="middle" font-family="Arial, sans-serif" font-size="18" font-weight="bold" fill="#34495e">User Experience Layer</text>
  <text x="500" y="105" text-anchor="middle" font-family="Arial, sans-serif" font-size="14" fill="#7f8c8d">Core user interactions and interface</text>
  
  <!-- UX Components -->
  <rect x="80" y="120" width="160" height="30" fill="#3498db" stroke="#2980b9" stroke-width="1" rx="5"/>
  <text x="160" y="140" text-anchor="middle" font-family="Arial, sans-serif" font-size="12" font-weight="bold" fill="white">Weekly Reflections</text>
  
  <rect x="260" y="120" width="160" height="30" fill="#3498db" stroke="#2980b9" stroke-width="1" rx="5"/>
  <text x="340" y="140" text-anchor="middle" font-family="Arial, sans-serif" font-size="12" font-weight="bold" fill="white">Automation Controls</text>
  
  <rect x="440" y="120" width="160" height="30" fill="#3498db" stroke="#2980b9" stroke-width="1" rx="5"/>
  <text x="520" y="140" text-anchor="middle" font-family="Arial, sans-serif" font-size="12" font-weight="bold" fill="white">Career Assessments</text>
  
  <rect x="620" y="120" width="160" height="30" fill="#3498db" stroke="#2980b9" stroke-width="1" rx="5"/>
  <text x="700" y="140" text-anchor="middle" font-family="Arial, sans-serif" font-size="12" font-weight="bold" fill="white">Integration Setup</text>
  
  <rect x="800" y="120" width="120" height="30" fill="#e74c3c" stroke="#c0392b" stroke-width="1" rx="5"/>
  <text x="860" y="140" text-anchor="middle" font-family="Arial, sans-serif" font-size="12" font-weight="bold" fill="white">Generate Now</text>
  
  <!-- Automation Engine Layer -->
  <rect x="50" y="190" width="900" height="80" fill="#fff3cd" stroke="#f39c12" stroke-width="2" rx="10"/>
  <text x="500" y="215" text-anchor="middle" font-family="Arial, sans-serif" font-size="18" font-weight="bold" fill="#f39c12">Reflection Automation Engine</text>
  <text x="500" y="235" text-anchor="middle" font-family="Arial, sans-serif" font-size="14" fill="#e67e22">Intelligent scheduling and on-demand reflection generation</text>
  
  <!-- Automation Components -->
  <rect x="80" y="245" width="130" height="20" fill="#f39c12" stroke="#e67e22" stroke-width="1" rx="3"/>
  <text x="145" y="258" text-anchor="middle" font-family="Arial, sans-serif" font-size="10" fill="white">Smart Scheduler</text>
  
  <rect x="230" y="245" width="130" height="20" fill="#f39c12" stroke="#e67e22" stroke-width="1" rx="3"/>
  <text x="295" y="258" text-anchor="middle" font-family="Arial, sans-serif" font-size="10" fill="white">User Preferences</text>
  
  <rect x="380" y="245" width="130" height="20" fill="#f39c12" stroke="#e67e22" stroke-width="1" rx="3"/>
  <text x="445" y="258" text-anchor="middle" font-family="Arial, sans-serif" font-size="10" fill="white">Job Orchestration</text>
  
  <rect x="530" y="245" width="130" height="20" fill="#f39c12" stroke="#e67e22" stroke-width="1" rx="3"/>
  <text x="595" y="258" text-anchor="middle" font-family="Arial, sans-serif" font-size="10" fill="white">Progress Tracking</text>
  
  <rect x="680" y="245" width="130" height="20" fill="#f39c12" stroke="#e67e22" stroke-width="1" rx="3"/>
  <text x="745" y="258" text-anchor="middle" font-family="Arial, sans-serif" font-size="10" fill="white">Conflict Prevention</text>
  
  <rect x="830" y="245" width="90" height="20" fill="#f39c12" stroke="#e67e22" stroke-width="1" rx="3"/>
  <text x="875" y="258" text-anchor="middle" font-family="Arial, sans-serif" font-size="10" fill="white">Manual Trigger</text>
  
  <!-- Security &amp; Identity Layer -->
  <rect x="50" y="300" width="900" height="70" fill="#f8d7da" stroke="#dc3545" stroke-width="2" rx="10"/>
  <text x="500" y="325" text-anchor="middle" font-family="Arial, sans-serif" font-size="18" font-weight="bold" fill="#dc3545">Security &amp; Identity Management</text>
  <text x="500" y="345" text-anchor="middle" font-family="Arial, sans-serif" font-size="14" fill="#721c24">Multi-environment authentication and session management</text>
  
  <!-- Security Components -->
  <rect x="150" y="350" width="150" height="15" fill="#dc3545" stroke="#c82333" stroke-width="1" rx="3"/>
  <text x="225" y="361" text-anchor="middle" font-family="Arial, sans-serif" font-size="9" fill="white">Development Auth</text>
  
  <rect x="320" y="350" width="150" height="15" fill="#dc3545" stroke="#c82333" stroke-width="1" rx="3"/>
  <text x="395" y="361" text-anchor="middle" font-family="Arial, sans-serif" font-size="9" fill="white">Production OAuth</text>
  
  <rect x="490" y="350" width="150" height="15" fill="#dc3545" stroke="#c82333" stroke-width="1" rx="3"/>
  <text x="565" y="361" text-anchor="middle" font-family="Arial, sans-serif" font-size="9" fill="white">Session Management</text>
  
  <rect x="660" y="350" width="150" height="15" fill="#dc3545" stroke="#c82333" stroke-width="1" rx="3"/>
  <text x="735" y="361" text-anchor="middle" font-family="Arial, sans-serif" font-size="9" fill="white">Integration Security</text>
  
  <!-- Business Logic Layer -->
  <rect x="50" y="400" width="900" height="80" fill="#d1ecf1" stroke="#17a2b8" stroke-width="2" rx="10"/>
  <text x="500" y="425" text-anchor="middle" font-family="Arial, sans-serif" font-size="18" font-weight="bold" fill="#17a2b8">Business Logic &amp; API Services</text>
  <text x="500" y="445" text-anchor="middle" font-family="Arial, sans-serif" font-size="14" fill="#0c5460">Core application logic and external service coordination</text>
  
  <!-- Business Logic Components -->
  <rect x="80" y="455" width="120" height="20" fill="#17a2b8" stroke="#138496" stroke-width="1" rx="3"/>
  <text x="140" y="468" text-anchor="middle" font-family="Arial, sans-serif" font-size="10" fill="white">Reflection Engine</text>
  
  <rect x="220" y="455" width="120" height="20" fill="#17a2b8" stroke="#138496" stroke-width="1" rx="3"/>
  <text x="280" y="468" text-anchor="middle" font-family="Arial, sans-serif" font-size="10" fill="white">Assessment Logic</text>
  
  <rect x="360" y="455" width="120" height="20" fill="#17a2b8" stroke="#138496" stroke-width="1" rx="3"/>
  <text x="420" y="468" text-anchor="middle" font-family="Arial, sans-serif" font-size="10" fill="white">User Management</text>
  
  <rect x="500" y="455" width="120" height="20" fill="#17a2b8" stroke="#138496" stroke-width="1" rx="3"/>
  <text x="560" y="468" text-anchor="middle" font-family="Arial, sans-serif" font-size="10" fill="white">Data Validation</text>
  
  <rect x="640" y="455" width="120" height="20" fill="#17a2b8" stroke="#138496" stroke-width="1" rx="3"/>
  <text x="700" y="468" text-anchor="middle" font-family="Arial, sans-serif" font-size="10" fill="white">Integration APIs</text>
  
  <rect x="780" y="455" width="120" height="20" fill="#17a2b8" stroke="#138496" stroke-width="1" rx="3"/>
  <text x="840" y="468" text-anchor="middle" font-family="Arial, sans-serif" font-size="10" fill="white">Job Management</text>
  
  <!-- Data &amp; Integration Layer -->
  <rect x="50" y="510" width="900" height="100" fill="#f8f9fa" stroke="#6c757d" stroke-width="2" rx="10"/>
  <text x="500" y="535" text-anchor="middle" font-family="Arial, sans-serif" font-size="18" font-weight="bold" fill="#495057">Data &amp; Integration Platform</text>
  <text x="500" y="555" text-anchor="middle" font-family="Arial, sans-serif" font-size="14" fill="#6c757d">Data persistence, external integrations, and AI processing</text>
  
  <!-- Data Platform Components -->
  <!-- Database Section -->
  <rect x="80" y="570" width="200" height="30" fill="#28a745" stroke="#1e7e34" stroke-width="1" rx="5"/>
  <text x="180" y="585" text-anchor="middle" font-family="Arial, sans-serif" font-size="12" font-weight="bold" fill="white">Multi-Environment Database</text>
  <text x="180" y="598" text-anchor="middle" font-family="Arial, sans-serif" font-size="9" fill="#d4edda">PostgreSQL Production • SQLite Development</text>
  
  <!-- Integrations Section -->
  <rect x="300" y="570" width="280" height="30" fill="#6f42c1" stroke="#5a2d8b" stroke-width="1" rx="5"/>
  <text x="440" y="585" text-anchor="middle" font-family="Arial, sans-serif" font-size="12" font-weight="bold" fill="white">Third-Party Integration Hub</text>
  <text x="440" y="598" text-anchor="middle" font-family="Arial, sans-serif" font-size="9" fill="#e2d8f0">Google Calendar • GitHub • Todoist • OAuth Management</text>
  
  <!-- AI Section -->
  <rect x="600" y="570" width="180" height="30" fill="#fd7e14" stroke="#e55100" stroke-width="1" rx="5"/>
  <text x="690" y="585" text-anchor="middle" font-family="Arial, sans-serif" font-size="12" font-weight="bold" fill="white">AI Processing Engine</text>
  <text x="690" y="598" text-anchor="middle" font-family="Arial, sans-serif" font-size="9" fill="#fff3e0">Google Gemini API • Unified Across Environments</text>
  
  <!-- Background Jobs Section -->
  <rect x="800" y="570" width="120" height="30" fill="#6c757d" stroke="#495057" stroke-width="1" rx="5"/>
  <text x="860" y="585" text-anchor="middle" font-family="Arial, sans-serif" font-size="12" font-weight="bold" fill="white">Background Jobs</text>
  <text x="860" y="598" text-anchor="middle" font-family="Arial, sans-serif" font-size="9" fill="#f8f9fa">Async Processing</text>
  
  <!-- Environment Labels -->
  <rect x="20" y="70" width="15" height="15" fill="#27ae60" rx="3"/>
  <text x="40" y="82" font-family="Arial, sans-serif" font-size="11" fill="#27ae60" font-weight="bold">Development</text>
  
  <rect x="20" y="90" width="15" height="15" fill="#3498db" rx="3"/>
  <text x="40" y="102" font-family="Arial, sans-serif" font-size="11" fill="#3498db" font-weight="bold">Production</text>
  
  <!-- Key Feature Callouts -->
  <rect x="820" y="20" width="160" height="35" fill="#fff" stroke="#e74c3c" stroke-width="2" rx="5" fill-opacity="0.95"/>
  <text x="900" y="35" text-anchor="middle" font-family="Arial, sans-serif" font-size="10" font-weight="bold" fill="#e74c3c">Key Architecture Features</text>
  <text x="900" y="47" text-anchor="middle" font-family="Arial, sans-serif" font-size="8" fill="#c0392b">• Unified AI Across Environments</text>
  <text x="900" y="57" text-anchor="middle" font-family="Arial, sans-serif" font-size="8" fill="#c0392b">• Smart Automation Engine</text>
  
  <!-- Data Flow Arrows -->
  <!-- User to Automation -->
  <line x1="500" y1="160" x2="500" y2="190" stroke="#7f8c8d" stroke-width="3" marker-end="url(#arrowhead)"/>
  
  <!-- Automation to Security -->
  <line x1="500" y1="270" x2="500" y2="300" stroke="#7f8c8d" stroke-width="3" marker-end="url(#arrowhead)"/>
  
  <!-- Security to Business Logic -->
  <line x1="500" y1="370" x2="500" y2="400" stroke="#7f8c8d" stroke-width="3" marker-end="url(#arrowhead)"/>
  
  <!-- Business Logic to Data -->
  <line x1="500" y1="480" x2="500" y2="510" stroke="#7f8c8d" stroke-width="3" marker-end="url(#arrowhead)"/>
  
  <!-- Automation Flow Arrows -->
  <!-- Manual trigger to automation -->
  <path d="M 860 150 Q 920 180 900 230 Q 880 250 875 245" stroke="#e74c3c" stroke-width="2" fill="none" marker-end="url(#arrowhead)" stroke-dasharray="5,5"/>
  
  <!-- Automation preferences connection -->
  <path d="M 340 150 Q 320 180 295 245" stroke="#f39c12" stroke-width="2" fill="none" marker-end="url(#arrowhead)" stroke-dasharray="3,3"/>
  
  <!-- Integration data flow -->
  <path d="M 440 570 Q 440 530 420 480" stroke="#6f42c1" stroke-width="2" fill="none" marker-end="url(#arrowhead)" stroke-dasharray="3,3"/>
  
  <!-- AI processing flow -->
  <path d="M 690 570 Q 720 530 700 480" stroke="#fd7e14" stroke-width="2" fill="none" marker-end="url(#arrowhead)" stroke-dasharray="3,3"/>
  
  <!-- Layer Responsibility Labels -->
  <text x="70" y="135" font-family="Arial, sans-serif" font-size="9" fill="#95a5a6" transform="rotate(-90, 70, 135)">User Interface</text>
  <text x="70" y="230" font-family="Arial, sans-serif" font-size="9" fill="#95a5a6" transform="rotate(-90, 70, 230)">Automation</text>
  <text x="70" y="335" font-family="Arial, sans-serif" font-size="9" fill="#95a5a6" transform="rotate(-90, 70, 335)">Security</text>
  <text x="70" y="440" font-family="Arial, sans-serif" font-size="9" fill="#95a5a6" transform="rotate(-90, 70, 440)">Business Logic</text>
  <text x="70" y="560" font-family="Arial, sans-serif" font-size="9" fill="#95a5a6" transform="rotate(-90, 70, 560)">Data Platform</text>
  
  <!-- Arrow marker definition -->
  <defs>
    <marker id="arrowhead" markerWidth="10" markerHeight="7" refX="9" refY="3.5" orient="auto">
      <polygon points="0 0, 10 3.5, 0 7" fill="#7f8c8d"/>
    </marker>
  </defs>
</svg>