<svg width="900" height="750" viewBox="0 0 900 750" xmlns="http://www.w3.org/2000/svg">
  <!-- Title -->
  <text x="450" y="25" text-anchor="middle" font-family="Arial" font-size="18" font-weight="bold" fill="#333">AdvanceWeekly System Architecture</text>
  
  <!-- User Interface Layer -->
  <rect x="50" y="50" width="800" height="120" fill="#e3f2fd" stroke="#1976d2" stroke-width="2" rx="8"/>
  <text x="450" y="75" text-anchor="middle" font-family="Arial" font-size="16" font-weight="bold" fill="#1976d2">User Interface Layer</text>
  
  <!-- UI Components -->
  <rect x="80" y="90" width="120" height="60" fill="#bbdefb" stroke="#1565c0" stroke-width="1" rx="5"/>
  <text x="140" y="115" text-anchor="middle" font-family="Arial" font-size="12" font-weight="bold" fill="#1565c0">Landing Page</text>
  <text x="140" y="135" text-anchor="middle" font-family="Arial" font-size="10" fill="#1565c0">Product Showcase</text>
  
  <rect x="220" y="90" width="120" height="60" fill="#bbdefb" stroke="#1565c0" stroke-width="1" rx="5"/>
  <text x="280" y="115" text-anchor="middle" font-family="Arial" font-size="12" font-weight="bold" fill="#1565c0">Weekly Reflections</text>
  <text x="280" y="135" text-anchor="middle" font-family="Arial" font-size="10" fill="#1565c0">CRUD + Auto-Generate</text>
  
  <rect x="360" y="90" width="120" height="60" fill="#bbdefb" stroke="#1565c0" stroke-width="1" rx="5"/>
  <text x="420" y="115" text-anchor="middle" font-family="Arial" font-size="12" font-weight="bold" fill="#1565c0">Performance</text>
  <text x="420" y="135" text-anchor="middle" font-family="Arial" font-size="10" fill="#1565c0">AI Assessments</text>
  
  <rect x="500" y="90" width="120" height="60" fill="#bbdefb" stroke="#1565c0" stroke-width="1" rx="5"/>
  <text x="560" y="115" text-anchor="middle" font-family="Arial" font-size="12" font-weight="bold" fill="#1565c0">Settings</text>
  <text x="560" y="135" text-anchor="middle" font-family="Arial" font-size="10" fill="#1565c0">User Profile</text>
  
  <rect x="640" y="90" width="120" height="60" fill="#bbdefb" stroke="#1565c0" stroke-width="1" rx="5"/>
  <text x="700" y="110" text-anchor="middle" font-family="Arial" font-size="11" font-weight="bold" fill="#1565c0">Automation</text>
  <text x="700" y="125" text-anchor="middle" font-family="Arial" font-size="11" font-weight="bold" fill="#1565c0">Preferences</text>
  <text x="700" y="140" text-anchor="middle" font-family="Arial" font-size="9" fill="#1565c0">Schedule & Timezone</text>
  
  <rect x="780" y="90" width="120" height="60" fill="#bbdefb" stroke="#1565c0" stroke-width="1" rx="5"/>
  <text x="840" y="115" text-anchor="middle" font-family="Arial" font-size="12" font-weight="bold" fill="#1565c0">Integration Mgmt</text>
  <text x="840" y="135" text-anchor="middle" font-family="Arial" font-size="10" fill="#1565c0">OAuth Flows</text>
  
  <!-- Authentication Layer -->
  <rect x="50" y="190" width="800" height="80" fill="#fff3e0" stroke="#f57c00" stroke-width="2" rx="8"/>
  <text x="450" y="215" text-anchor="middle" font-family="Arial" font-size="16" font-weight="bold" fill="#f57c00">Authentication Layer (NextAuth)</text>
  
  <rect x="200" y="230" width="120" height="30" fill="#ffcc02" stroke="#f57c00" stroke-width="1" rx="5"/>
  <text x="260" y="250" text-anchor="middle" font-family="Arial" font-size="10" fill="#f57c00">Dev: Mock Auth</text>
  
  <rect x="340" y="230" width="120" height="30" fill="#ffcc02" stroke="#f57c00" stroke-width="1" rx="5"/>
  <text x="400" y="250" text-anchor="middle" font-family="Arial" font-size="10" fill="#f57c00">Prod: Google OAuth</text>
  
  <rect x="480" y="230" width="120" height="30" fill="#ffcc02" stroke="#f57c00" stroke-width="1" rx="5"/>
  <text x="540" y="250" text-anchor="middle" font-family="Arial" font-size="10" fill="#f57c00">Session Management</text>
  
  <rect x="620" y="230" width="120" height="30" fill="#ffcc02" stroke="#f57c00" stroke-width="1" rx="5"/>
  <text x="680" y="250" text-anchor="middle" font-family="Arial" font-size="10" fill="#f57c00">Integration OAuth</text>
  
  <!-- API Layer -->
  <rect x="50" y="290" width="800" height="80" fill="#f3e5f5" stroke="#7b1fa2" stroke-width="2" rx="8"/>
  <text x="450" y="315" text-anchor="middle" font-family="Arial" font-size="16" font-weight="bold" fill="#7b1fa2">API Layer (/app/api/*)</text>
  
  <rect x="80" y="330" width="90" height="30" fill="#e1bee7" stroke="#7b1fa2" stroke-width="1" rx="5"/>
  <text x="125" y="350" text-anchor="middle" font-family="Arial" font-size="10" fill="#7b1fa2">/snippets</text>
  
  <rect x="180" y="330" width="90" height="30" fill="#e1bee7" stroke="#7b1fa2" stroke-width="1" rx="5"/>
  <text x="225" y="350" text-anchor="middle" font-family="Arial" font-size="10" fill="#7b1fa2">/assessments</text>
  
  <rect x="280" y="330" width="90" height="30" fill="#e1bee7" stroke="#7b1fa2" stroke-width="1" rx="5"/>
  <text x="325" y="350" text-anchor="middle" font-family="Arial" font-size="10" fill="#7b1fa2">/integrations</text>
  
  <rect x="380" y="330" width="110" height="30" fill="#e1bee7" stroke="#7b1fa2" stroke-width="1" rx="5"/>
  <text x="435" y="350" text-anchor="middle" font-family="Arial" font-size="9" fill="#7b1fa2">/reflections/generate</text>
  
  <rect x="500" y="330" width="120" height="30" fill="#e1bee7" stroke="#7b1fa2" stroke-width="1" rx="5"/>
  <text x="560" y="350" text-anchor="middle" font-family="Arial" font-size="9" fill="#7b1fa2">/reflection-preferences</text>
  
  <rect x="630" y="330" width="90" height="30" fill="#e1bee7" stroke="#7b1fa2" stroke-width="1" rx="5"/>
  <text x="675" y="350" text-anchor="middle" font-family="Arial" font-size="10" fill="#7b1fa2">/auth</text>
  
  <rect x="730" y="330" width="90" height="30" fill="#e1bee7" stroke="#7b1fa2" stroke-width="1" rx="5"/>
  <text x="775" y="350" text-anchor="middle" font-family="Arial" font-size="10" fill="#7b1fa2">/async-ops</text>
  
  <!-- Reflection Automation Layer (NEW) -->
  <rect x="50" y="390" width="800" height="80" fill="#fff8e1" stroke="#ff8f00" stroke-width="2" rx="8"/>
  <text x="450" y="415" text-anchor="middle" font-family="Arial" font-size="16" font-weight="bold" fill="#ff8f00">Reflection Automation Layer</text>
  
  <rect x="80" y="430" width="120" height="30" fill="#ffe082" stroke="#ff8f00" stroke-width="1" rx="5"/>
  <text x="140" y="450" text-anchor="middle" font-family="Arial" font-size="10" fill="#ff6f00">Hourly Scheduler</text>
  
  <rect x="220" y="430" width="120" height="30" fill="#ffe082" stroke="#ff8f00" stroke-width="1" rx="5"/>
  <text x="280" y="450" text-anchor="middle" font-family="Arial" font-size="10" fill="#ff6f00">Preference Matcher</text>
  
  <rect x="360" y="430" width="120" height="30" fill="#ffe082" stroke="#ff8f00" stroke-width="1" rx="5"/>
  <text x="420" y="450" text-anchor="middle" font-family="Arial" font-size="10" fill="#ff6f00">Manual Trigger</text>
  
  <rect x="500" y="430" width="120" height="30" fill="#ffe082" stroke="#ff8f00" stroke-width="1" rx="5"/>
  <text x="560" y="450" text-anchor="middle" font-family="Arial" font-size="10" fill="#ff6f00">Job Orchestrator</text>
  
  <rect x="640" y="430" width="120" height="30" fill="#ffe082" stroke="#ff8f00" stroke-width="1" rx="5"/>
  <text x="700" y="450" text-anchor="middle" font-family="Arial" font-size="10" fill="#ff6f00">Progress Tracker</text>
  
  <rect x="780" y="430" width="120" height="30" fill="#ffe082" stroke="#ff8f00" stroke-width="1" rx="5"/>
  <text x="840" y="450" text-anchor="middle" font-family="Arial" font-size="10" fill="#ff6f00">Conflict Prevention</text>
  
  <!-- Data Storage Layer -->
  <rect x="50" y="490" width="300" height="120" fill="#e8f5e8" stroke="#388e3c" stroke-width="2" rx="8"/>
  <text x="200" y="515" text-anchor="middle" font-family="Arial" font-size="16" font-weight="bold" fill="#388e3c">Data Storage</text>
  
  <rect x="70" y="530" width="120" height="60" fill="#c8e6c9" stroke="#388e3c" stroke-width="1" rx="5"/>
  <text x="130" y="555" text-anchor="middle" font-family="Arial" font-size="12" font-weight="bold" fill="#388e3c">PostgreSQL</text>
  <text x="130" y="570" text-anchor="middle" font-family="Arial" font-size="10" fill="#388e3c">(Cloud SQL)</text>
  <text x="130" y="585" text-anchor="middle" font-family="Arial" font-size="10" fill="#388e3c">Production</text>
  
  <rect x="210" y="530" width="120" height="60" fill="#c8e6c9" stroke="#388e3c" stroke-width="1" rx="5"/>
  <text x="270" y="555" text-anchor="middle" font-family="Arial" font-size="12" font-weight="bold" fill="#388e3c">SQLite</text>
  <text x="270" y="570" text-anchor="middle" font-family="Arial" font-size="10" fill="#388e3c">(dev.db)</text>
  <text x="270" y="585" text-anchor="middle" font-family="Arial" font-size="10" fill="#388e3c">Development</text>
  
  <!-- Integration Services -->
  <rect x="380" y="490" width="280" height="120" fill="#fff8e1" stroke="#fbc02d" stroke-width="2" rx="8"/>
  <text x="520" y="515" text-anchor="middle" font-family="Arial" font-size="16" font-weight="bold" fill="#fbc02d">Third-Party Integrations</text>
  
  <rect x="400" y="530" width="70" height="60" fill="#fff176" stroke="#fbc02d" stroke-width="1" rx="5"/>
  <text x="435" y="555" text-anchor="middle" font-family="Arial" font-size="11" font-weight="bold" fill="#f57f17">Google</text>
  <text x="435" y="570" text-anchor="middle" font-family="Arial" font-size="11" font-weight="bold" fill="#f57f17">Calendar</text>
  <text x="435" y="585" text-anchor="middle" font-family="Arial" font-size="9" fill="#f57f17">Meetings</text>
  
  <rect x="485" y="530" width="70" height="60" fill="#fff176" stroke="#fbc02d" stroke-width="1" rx="5"/>
  <text x="520" y="555" text-anchor="middle" font-family="Arial" font-size="11" font-weight="bold" fill="#f57f17">Todoist</text>
  <text x="520" y="570" text-anchor="middle" font-family="Arial" font-size="9" fill="#f57f17">Tasks &</text>
  <text x="520" y="585" text-anchor="middle" font-family="Arial" font-size="9" fill="#f57f17">Projects</text>
  
  <rect x="570" y="530" width="70" height="60" fill="#fff176" stroke="#fbc02d" stroke-width="1" rx="5"/>
  <text x="605" y="555" text-anchor="middle" font-family="Arial" font-size="11" font-weight="bold" fill="#f57f17">GitHub</text>
  <text x="605" y="570" text-anchor="middle" font-family="Arial" font-size="9" fill="#f57f17">Commits &</text>
  <text x="605" y="585" text-anchor="middle" font-family="Arial" font-size="9" fill="#f57f17">PRs</text>
  
  <!-- AI Processing -->
  <rect x="680" y="490" width="170" height="120" fill="#e1f5fe" stroke="#0277bd" stroke-width="2" rx="8"/>
  <text x="765" y="515" text-anchor="middle" font-family="Arial" font-size="16" font-weight="bold" fill="#0277bd">AI Processing (LLMProxy)</text>
  
  <rect x="690" y="530" width="70" height="60" fill="#81d4fa" stroke="#0277bd" stroke-width="1" rx="5"/>
  <text x="725" y="555" text-anchor="middle" font-family="Arial" font-size="10" font-weight="bold" fill="#01579b">Gemini API</text>
  <text x="725" y="570" text-anchor="middle" font-family="Arial" font-size="8" fill="#01579b">Production</text>
  <text x="725" y="585" text-anchor="middle" font-family="Arial" font-size="8" fill="#01579b">All Envs</text>
  
  <rect x="770" y="530" width="70" height="60" fill="#81d4fa" stroke="#0277bd" stroke-width="1" rx="5"/>
  <text x="805" y="550" text-anchor="middle" font-family="Arial" font-size="10" font-weight="bold" fill="#01579b">Integration</text>
  <text x="805" y="565" text-anchor="middle" font-family="Arial" font-size="10" font-weight="bold" fill="#01579b">Consolidation</text>
  <text x="805" y="580" text-anchor="middle" font-family="Arial" font-size="8" fill="#01579b">Data Theming</text>
  
  <!-- Scheduled Processing -->
  <rect x="50" y="640" width="800" height="80" fill="#fce4ec" stroke="#e91e63" stroke-width="2" rx="8"/>
  <text x="450" y="665" text-anchor="middle" font-family="Arial" font-size="16" font-weight="bold" fill="#e91e63">Scheduled Processing (GCP)</text>
  
  <rect x="80" y="680" width="110" height="30" fill="#f8bbd9" stroke="#e91e63" stroke-width="1" rx="5"/>
  <text x="135" y="700" text-anchor="middle" font-family="Arial" font-size="10" fill="#e91e63">Cloud Scheduler</text>
  
  <rect x="200" y="680" width="110" height="30" fill="#f8bbd9" stroke="#e91e63" stroke-width="1" rx="5"/>
  <text x="255" y="700" text-anchor="middle" font-family="Arial" font-size="10" fill="#e91e63">Cloud Run Jobs</text>
  
  <rect x="320" y="680" width="110" height="30" fill="#f8bbd9" stroke="#e91e63" stroke-width="1" rx="5"/>
  <text x="375" y="700" text-anchor="middle" font-family="Arial" font-size="10" fill="#e91e63">Job Processor</text>
  
  <rect x="440" y="680" width="110" height="30" fill="#f8bbd9" stroke="#e91e63" stroke-width="1" rx="5"/>
  <text x="495" y="700" text-anchor="middle" font-family="Arial" font-size="10" fill="#e91e63">AI Processing</text>
  
  <rect x="560" y="680" width="110" height="30" fill="#f8bbd9" stroke="#e91e63" stroke-width="1" rx="5"/>
  <text x="615" y="700" text-anchor="middle" font-family="Arial" font-size="10" fill="#e91e63">Draft Creation</text>
  
  <rect x="680" y="680" width="110" height="30" fill="#f8bbd9" stroke="#e91e63" stroke-width="1" rx="5"/>
  <text x="735" y="700" text-anchor="middle" font-family="Arial" font-size="10" fill="#e91e63">Progress Updates</text>
  
  <rect x="800" y="680" width="90" height="30" fill="#f8bbd9" stroke="#e91e63" stroke-width="1" rx="5"/>
  <text x="845" y="700" text-anchor="middle" font-family="Arial" font-size="10" fill="#e91e63">Notifications</text>
  
  <!-- Environment Labels -->
  <rect x="20" y="50" width="20" height="20" fill="#4caf50" rx="3"/>
  <text x="45" y="65" font-family="Arial" font-size="12" fill="#4caf50">Development</text>
  
  <rect x="20" y="75" width="20" height="20" fill="#2196f3" rx="3"/>
  <text x="45" y="90" font-family="Arial" font-size="12" fill="#2196f3">Production</text>
  
  <rect x="20" y="100" width="20" height="20" fill="#ff8f00" rx="3"/>
  <text x="45" y="115" font-family="Arial" font-size="12" fill="#ff8f00">Automation</text>
  
  <!-- Arrows showing data flow -->
  <line x1="450" y1="170" x2="450" y2="190" stroke="#666" stroke-width="2" marker-end="url(#arrowhead)"/>
  <line x1="450" y1="270" x2="450" y2="290" stroke="#666" stroke-width="2" marker-end="url(#arrowhead)"/>
  <line x1="450" y1="370" x2="450" y2="390" stroke="#666" stroke-width="2" marker-end="url(#arrowhead)"/>
  <line x1="450" y1="470" x2="450" y2="490" stroke="#666" stroke-width="2" marker-end="url(#arrowhead)"/>
  <line x1="450" y1="610" x2="450" y2="640" stroke="#666" stroke-width="2" marker-end="url(#arrowhead)"/>
  
  <!-- Manual generation flow arrow -->
  <line x1="280" y1="150" x2="420" y2="430" stroke="#ff8f00" stroke-width="2" marker-end="url(#arrowhead)" stroke-dasharray="5,5"/>
  <text x="350" y="280" font-family="Arial" font-size="10" fill="#ff8f00">Manual Trigger</text>
  
  <!-- Automation preference flow arrow -->
  <line x1="700" y1="150" x2="140" y2="430" stroke="#ff8f00" stroke-width="2" marker-end="url(#arrowhead)" stroke-dasharray="5,5"/>
  <text x="420" y="280" font-family="Arial" font-size="10" fill="#ff8f00">User Preferences</text>
  
  <!-- Integration flow arrows -->
  <line x1="520" y1="610" x2="765" y2="610" stroke="#fbc02d" stroke-width="2" marker-end="url(#arrowhead)" stroke-dasharray="5,5"/>
  <line x1="765" y1="490" x2="495" y2="470" stroke="#0277bd" stroke-width="2" marker-end="url(#arrowhead)" stroke-dasharray="5,5"/>
  
  <!-- Arrow marker definition -->
  <defs>
    <marker id="arrowhead" markerWidth="10" markerHeight="7" refX="9" refY="3.5" orient="auto">
      <polygon points="0 0, 10 3.5, 0 7" fill="#666"/>
    </marker>
  </defs>
</svg>