<svg width="1000" height="700" xmlns="http://www.w3.org/2000/svg">
  <!-- Title -->
  <text x="500" y="25" text-anchor="middle" font-family="Arial" font-size="18" font-weight="bold" fill="#333">AdvanceWeekly System Architecture</text>
  
  <!-- User Interface Layer -->
  <rect x="50" y="50" width="900" height="120" fill="#e3f2fd" stroke="#1976d2" stroke-width="2" rx="8"/>
  <text x="500" y="75" text-anchor="middle" font-family="Arial" font-size="16" font-weight="bold" fill="#1976d2">User Interface Layer</text>
  
  <!-- UI Components -->
  <rect x="80" y="90" width="140" height="60" fill="#bbdefb" stroke="#1565c0" stroke-width="1" rx="5"/>
  <text x="150" y="115" text-anchor="middle" font-family="Arial" font-size="12" font-weight="bold" fill="#1565c0">Landing Page</text>
  <text x="150" y="135" text-anchor="middle" font-family="Arial" font-size="10" fill="#1565c0">Product Showcase</text>
  
  <rect x="250" y="90" width="140" height="60" fill="#bbdefb" stroke="#1565c0" stroke-width="1" rx="5"/>
  <text x="320" y="115" text-anchor="middle" font-family="Arial" font-size="12" font-weight="bold" fill="#1565c0">Weekly Snippets</text>
  <text x="320" y="135" text-anchor="middle" font-family="Arial" font-size="10" fill="#1565c0">CRUD Interface</text>
  
  <rect x="420" y="90" width="140" height="60" fill="#bbdefb" stroke="#1565c0" stroke-width="1" rx="5"/>
  <text x="490" y="115" text-anchor="middle" font-family="Arial" font-size="12" font-weight="bold" fill="#1565c0">Performance</text>
  <text x="490" y="135" text-anchor="middle" font-family="Arial" font-size="10" fill="#1565c0">AI Assessments</text>
  
  <rect x="590" y="90" width="140" height="60" fill="#bbdefb" stroke="#1565c0" stroke-width="1" rx="5"/>
  <text x="660" y="115" text-anchor="middle" font-family="Arial" font-size="12" font-weight="bold" fill="#1565c0">Settings</text>
  <text x="660" y="135" text-anchor="middle" font-family="Arial" font-size="10" fill="#1565c0">User Profile</text>
  
  <rect x="760" y="90" width="140" height="60" fill="#bbdefb" stroke="#1565c0" stroke-width="1" rx="5"/>
  <text x="830" y="115" text-anchor="middle" font-family="Arial" font-size="12" font-weight="bold" fill="#1565c0">Integration Mgmt</text>
  <text x="830" y="135" text-anchor="middle" font-family="Arial" font-size="10" fill="#1565c0">OAuth Flows</text>
  
  <!-- Authentication Layer -->
  <rect x="50" y="200" width="900" height="80" fill="#fff3e0" stroke="#f57c00" stroke-width="2" rx="8"/>
  <text x="500" y="225" text-anchor="middle" font-family="Arial" font-size="16" font-weight="bold" fill="#f57c00">Authentication Layer (NextAuth)</text>
  
  <rect x="200" y="240" width="120" height="30" fill="#ffcc02" stroke="#f57c00" stroke-width="1" rx="5"/>
  <text x="260" y="260" text-anchor="middle" font-family="Arial" font-size="10" fill="#f57c00">Dev: Mock Auth</text>
  
  <rect x="340" y="240" width="120" height="30" fill="#ffcc02" stroke="#f57c00" stroke-width="1" rx="5"/>
  <text x="400" y="260" text-anchor="middle" font-family="Arial" font-size="10" fill="#f57c00">Prod: Google OAuth</text>
  
  <rect x="480" y="240" width="120" height="30" fill="#ffcc02" stroke="#f57c00" stroke-width="1" rx="5"/>
  <text x="540" y="260" text-anchor="middle" font-family="Arial" font-size="10" fill="#f57c00">Session Management</text>
  
  <rect x="620" y="240" width="120" height="30" fill="#ffcc02" stroke="#f57c00" stroke-width="1" rx="5"/>
  <text x="680" y="260" text-anchor="middle" font-family="Arial" font-size="10" fill="#f57c00">Integration OAuth</text>
  
  <!-- API Layer -->
  <rect x="50" y="310" width="900" height="80" fill="#f3e5f5" stroke="#7b1fa2" stroke-width="2" rx="8"/>
  <text x="500" y="335" text-anchor="middle" font-family="Arial" font-size="16" font-weight="bold" fill="#7b1fa2">API Layer (/app/api/*)</text>
  
  <rect x="100" y="350" width="100" height="30" fill="#e1bee7" stroke="#7b1fa2" stroke-width="1" rx="5"/>
  <text x="150" y="370" text-anchor="middle" font-family="Arial" font-size="10" fill="#7b1fa2">/snippets</text>
  
  <rect x="220" y="350" width="100" height="30" fill="#e1bee7" stroke="#7b1fa2" stroke-width="1" rx="5"/>
  <text x="270" y="370" text-anchor="middle" font-family="Arial" font-size="10" fill="#7b1fa2">/assessments</text>
  
  <rect x="340" y="350" width="100" height="30" fill="#e1bee7" stroke="#7b1fa2" stroke-width="1" rx="5"/>
  <text x="390" y="370" text-anchor="middle" font-family="Arial" font-size="10" fill="#7b1fa2">/integrations</text>
  
  <rect x="460" y="350" width="100" height="30" fill="#e1bee7" stroke="#7b1fa2" stroke-width="1" rx="5"/>
  <text x="510" y="370" text-anchor="middle" font-family="Arial" font-size="10" fill="#7b1fa2">/auth</text>
  
  <rect x="580" y="350" width="100" height="30" fill="#e1bee7" stroke="#7b1fa2" stroke-width="1" rx="5"/>
  <text x="630" y="370" text-anchor="middle" font-family="Arial" font-size="10" fill="#7b1fa2">/data-collection</text>
  
  <rect x="700" y="350" width="100" height="30" fill="#e1bee7" stroke="#7b1fa2" stroke-width="1" rx="5"/>
  <text x="750" y="370" text-anchor="middle" font-family="Arial" font-size="10" fill="#7b1fa2">Cloud Scheduler</text>
  
  <!-- Data Storage Layer -->
  <rect x="50" y="420" width="300" height="120" fill="#e8f5e8" stroke="#388e3c" stroke-width="2" rx="8"/>
  <text x="200" y="445" text-anchor="middle" font-family="Arial" font-size="16" font-weight="bold" fill="#388e3c">Data Storage</text>
  
  <rect x="70" y="460" width="120" height="60" fill="#c8e6c9" stroke="#388e3c" stroke-width="1" rx="5"/>
  <text x="130" y="485" text-anchor="middle" font-family="Arial" font-size="12" font-weight="bold" fill="#388e3c">PostgreSQL</text>
  <text x="130" y="500" text-anchor="middle" font-family="Arial" font-size="10" fill="#388e3c">(Cloud SQL)</text>
  <text x="130" y="515" text-anchor="middle" font-family="Arial" font-size="10" fill="#388e3c">Production</text>
  
  <rect x="210" y="460" width="120" height="60" fill="#c8e6c9" stroke="#388e3c" stroke-width="1" rx="5"/>
  <text x="270" y="485" text-anchor="middle" font-family="Arial" font-size="12" font-weight="bold" fill="#388e3c">SQLite</text>
  <text x="270" y="500" text-anchor="middle" font-family="Arial" font-size="10" fill="#388e3c">(dev.db)</text>
  <text x="270" y="515" text-anchor="middle" font-family="Arial" font-size="10" fill="#388e3c">Development</text>
  
  <!-- Integration Services -->
  <rect x="380" y="420" width="300" height="120" fill="#fff8e1" stroke="#fbc02d" stroke-width="2" rx="8"/>
  <text x="530" y="445" text-anchor="middle" font-family="Arial" font-size="16" font-weight="bold" fill="#fbc02d">Third-Party Integrations</text>
  
  <rect x="400" y="460" width="80" height="60" fill="#fff176" stroke="#fbc02d" stroke-width="1" rx="5"/>
  <text x="440" y="485" text-anchor="middle" font-family="Arial" font-size="11" font-weight="bold" fill="#f57f17">Google</text>
  <text x="440" y="500" text-anchor="middle" font-family="Arial" font-size="11" font-weight="bold" fill="#f57f17">Calendar</text>
  <text x="440" y="515" text-anchor="middle" font-family="Arial" font-size="9" fill="#f57f17">Meetings</text>
  
  <rect x="500" y="460" width="80" height="60" fill="#fff176" stroke="#fbc02d" stroke-width="1" rx="5"/>
  <text x="540" y="485" text-anchor="middle" font-family="Arial" font-size="11" font-weight="bold" fill="#f57f17">Todoist</text>
  <text x="540" y="500" text-anchor="middle" font-family="Arial" font-size="9" fill="#f57f17">Tasks &</text>
  <text x="540" y="515" text-anchor="middle" font-family="Arial" font-size="9" fill="#f57f17">Projects</text>
  
  <rect x="600" y="460" width="80" height="60" fill="#fff176" stroke="#fbc02d" stroke-width="1" rx="5"/>
  <text x="640" y="485" text-anchor="middle" font-family="Arial" font-size="11" font-weight="bold" fill="#f57f17">GitHub</text>
  <text x="640" y="500" text-anchor="middle" font-family="Arial" font-size="9" fill="#f57f17">Commits &</text>
  <text x="640" y="515" text-anchor="middle" font-family="Arial" font-size="9" fill="#f57f17">PRs</text>
  
  <!-- AI Processing -->
  <rect x="710" y="420" width="240" height="120" fill="#e1f5fe" stroke="#0277bd" stroke-width="2" rx="8"/>
  <text x="830" y="445" text-anchor="middle" font-family="Arial" font-size="16" font-weight="bold" fill="#0277bd">AI Processing (LLMProxy)</text>
  
  <rect x="730" y="460" width="100" height="60" fill="#81d4fa" stroke="#0277bd" stroke-width="1" rx="5"/>
  <text x="780" y="485" text-anchor="middle" font-family="Arial" font-size="11" font-weight="bold" fill="#01579b">OpenAI API</text>
  <text x="780" y="500" text-anchor="middle" font-family="Arial" font-size="9" fill="#01579b">Production</text>
  <text x="780" y="515" text-anchor="middle" font-family="Arial" font-size="9" fill="#01579b">GPT-4</text>
  
  <rect x="840" y="460" width="100" height="60" fill="#81d4fa" stroke="#0277bd" stroke-width="1" rx="5"/>
  <text x="890" y="485" text-anchor="middle" font-family="Arial" font-size="11" font-weight="bold" fill="#01579b">Local LLM</text>
  <text x="890" y="500" text-anchor="middle" font-family="Arial" font-size="9" fill="#01579b">Development</text>
  <text x="890" y="515" text-anchor="middle" font-family="Arial" font-size="9" fill="#01579b">Ollama</text>
  
  <!-- Scheduled Processing -->
  <rect x="50" y="570" width="900" height="80" fill="#fce4ec" stroke="#e91e63" stroke-width="2" rx="8"/>
  <text x="500" y="595" text-anchor="middle" font-family="Arial" font-size="16" font-weight="bold" fill="#e91e63">Scheduled Processing (GCP)</text>
  
  <rect x="100" y="610" width="120" height="30" fill="#f8bbd9" stroke="#e91e63" stroke-width="1" rx="5"/>
  <text x="160" y="630" text-anchor="middle" font-family="Arial" font-size="10" fill="#e91e63">Cloud Scheduler</text>
  
  <rect x="240" y="610" width="120" height="30" fill="#f8bbd9" stroke="#e91e63" stroke-width="1" rx="5"/>
  <text x="300" y="630" text-anchor="middle" font-family="Arial" font-size="10" fill="#e91e63">Cloud Run Jobs</text>
  
  <rect x="380" y="610" width="120" height="30" fill="#f8bbd9" stroke="#e91e63" stroke-width="1" rx="5"/>
  <text x="440" y="630" text-anchor="middle" font-family="Arial" font-size="10" fill="#e91e63">Data Collection</text>
  
  <rect x="520" y="610" width="120" height="30" fill="#f8bbd9" stroke="#e91e63" stroke-width="1" rx="5"/>
  <text x="580" y="630" text-anchor="middle" font-family="Arial" font-size="10" fill="#e91e63">AI Processing</text>
  
  <rect x="660" y="610" width="120" height="30" fill="#f8bbd9" stroke="#e91e63" stroke-width="1" rx="5"/>
  <text x="720" y="630" text-anchor="middle" font-family="Arial" font-size="10" fill="#e91e63">Recommendations</text>
  
  <rect x="800" y="610" width="120" height="30" fill="#f8bbd9" stroke="#e91e63" stroke-width="1" rx="5"/>
  <text x="860" y="630" text-anchor="middle" font-family="Arial" font-size="10" fill="#e91e63">Weekly Batch</text>
  
  <!-- Environment Labels -->
  <rect x="20" y="50" width="20" height="20" fill="#4caf50" rx="3"/>
  <text x="45" y="65" font-family="Arial" font-size="12" fill="#4caf50">Development</text>
  
  <rect x="20" y="75" width="20" height="20" fill="#2196f3" rx="3"/>
  <text x="45" y="90" font-family="Arial" font-size="12" fill="#2196f3">Production</text>
  
  <!-- Arrows showing data flow -->
  <line x1="500" y1="170" x2="500" y2="200" stroke="#666" stroke-width="2" marker-end="url(#arrowhead)"/>
  <line x1="500" y1="280" x2="500" y2="310" stroke="#666" stroke-width="2" marker-end="url(#arrowhead)"/>
  <line x1="500" y1="390" x2="500" y2="420" stroke="#666" stroke-width="2" marker-end="url(#arrowhead)"/>
  <line x1="500" y1="540" x2="500" y2="570" stroke="#666" stroke-width="2" marker-end="url(#arrowhead)"/>
  
  <!-- Integration flow arrows -->
  <line x1="530" y1="540" x2="830" y2="540" stroke="#fbc02d" stroke-width="2" marker-end="url(#arrowhead)" stroke-dasharray="5,5"/>
  <line x1="830" y1="420" x2="630" y2="390" stroke="#0277bd" stroke-width="2" marker-end="url(#arrowhead)" stroke-dasharray="5,5"/>
  
  <!-- Arrow marker definition -->
  <defs>
    <marker id="arrowhead" markerWidth="10" markerHeight="7" refX="9" refY="3.5" orient="auto">
      <polygon points="0 0, 10 3.5, 0 7" fill="#666"/>
    </marker>
  </defs>
</svg>